<?xml version="1.0" encoding="UTF-8"?>
<svg width="108px" height="31px" viewBox="0 0 108 31" version="1.1" xmlns="http://www.w3.org/2000/svg" xmlns:xlink="http://www.w3.org/1999/xlink">
    <!-- Generator: sketchtool 53.2 (72643) - https://sketchapp.com -->
    <title>F9861384-E9C2-4A4A-A205-227FD786638D</title>
    <desc>Created with sketchtool.</desc>
    <g id="Desk---BI-Operadora" stroke="none" stroke-width="1" fill="none" fill-rule="evenodd">
        <g id="login-válido---input" transform="translate(-73.000000, -180.000000)" fill="#17D5D5" fill-rule="nonzero">
            <g id="Brand/Logotype_Horizontal/On-Dark/-Value-Based" transform="translate(73.500000, 180.000000)">
                <g id="Group">
                    <g id="dasa">
                        <path d="M22.0290936,0.591603053 C22.0290936,0.232001197 21.9604671,0.0696003592 21.5601461,0.0812004191 C20.6222512,0.104400539 19.6957939,0.104400539 18.757899,0.0812004191 C18.3804535,0.0696003592 18.2546383,0.208801078 18.266076,0.591603053 C18.2889515,1.39200718 18.2775138,10.1964526 18.2775138,10.9736566 C18.0487589,11.0200569 17.9915702,10.9040563 17.911506,10.8228559 C12.341325,5.44042808 3.72870431,7.95764107 0.915019463,14.6392756 C-1.08658561,19.3953001 0.308819069,24.8821284 4.33490471,28.0373447 C8.28092614,31.1229606 13.8167939,31.1577608 17.7285021,28.0721449 C20.5993757,25.7985332 21.9261539,22.7129172 22.0062181,19.0936985 C22.0748445,15.5904805 22.0062181,4.08322107 22.0290936,0.591603053 Z M18.0487589,19.0240982 C17.9686947,21.900913 16.9507356,24.1397246 14.5373717,25.566532 C11.449181,27.3877414 7.43453314,26.5293369 5.3643016,23.6757222 C3.21400586,20.6945068 3.56857591,16.0428828 6.21069461,13.6416704 C8.47536778,11.5884598 11.1174865,11.1824577 13.8739826,12.3888639 C16.7562939,13.6300703 17.9458192,16.0660829 18.0487589,19.0240982 Z" id="Shape"></path>
                        <path d="M88.4366311,19.1632989 C88.3565669,15.5440802 87.0297887,12.4468642 84.1589151,10.1848526 C80.2472069,7.09923664 74.7113392,7.13403682 70.7653177,10.2196527 C66.7392321,13.374869 65.3438274,18.8616974 67.3454325,23.6177219 C70.1591173,30.2993564 78.7831758,32.8165694 84.341919,27.4341416 C84.4219832,27.3645412 84.4791719,27.2369406 84.7079268,27.2833408 C84.7079268,28.0605448 84.7193645,28.872549 84.6964891,29.6613531 C84.6850513,30.032555 84.8108665,30.1717557 85.188312,30.1717557 C86.126207,30.1485556 87.0526642,30.1485556 87.9905591,30.1717557 C88.3908801,30.1833558 88.4595066,30.0093549 88.4595066,29.6613531 C88.4595066,26.158135 88.5166953,22.6549169 88.4366311,19.1632989 Z M80.3158334,25.8681335 C77.5593372,27.0629397 74.9172185,26.6685376 72.6525454,24.615327 C70.0104267,22.2141147 69.6558566,17.5624906 71.8061524,14.5812753 C73.8649462,11.7276605 77.8910318,10.8692561 80.9792225,12.6904655 C83.3925863,14.1172729 84.4105455,16.3560844 84.4906097,19.2328993 C84.38767,22.1793145 83.1981447,24.6269271 80.3158334,25.8681335 Z" id="Shape"></path>
                        <path d="M66.7621076,9.95285137 C66.7621076,10.3936536 66.7506698,10.846056 66.7621076,11.2868583 C66.7735453,11.6464601 66.6362924,11.7624607 66.2931601,11.7508606 C65.9271523,11.7392606 65.5725823,11.7624607 65.2065745,11.8088609 C63.136343,12.0408621 61.752376,13.1892681 60.8945453,15.0800778 C60.2082807,16.5880856 59.8651484,18.1888939 59.6363935,19.8245023 C59.2932612,22.2489148 58.5841211,24.5341266 57.028588,26.4713366 C54.981232,29.0233498 52.2933623,30.1253555 49.0907942,30.1021554 C48.7476619,30.1021554 48.6218467,29.9861548 48.6218467,29.6265529 C48.6332845,28.6985481 48.6332845,27.7705433 48.6218467,26.8425385 C48.610409,26.4945367 48.7247864,26.355336 49.0793565,26.3785361 C49.456802,26.4017363 49.8456853,26.3669361 50.2231308,26.3205358 C52.0760452,26.0885347 53.3799479,25.0677294 54.2149032,23.4089208 C55.026983,21.8081126 55.427304,20.0797036 55.7132476,18.3280946 C56.0220666,16.4488849 56.4681386,14.6160754 57.4517845,12.9688669 C59.4419519,9.62804969 62.4043274,8.07364167 66.2130959,8.05044155 C66.5905414,8.05044155 66.7735453,8.15484209 66.7506698,8.57244424 C66.7392321,9.02484658 66.7621076,9.48884897 66.7621076,9.95285137 Z" id="Shape"></path>
                        <path d="M46.4601132,19.1632989 C46.380049,15.5440802 45.0532708,12.4468642 42.1823972,10.1848526 C38.270689,7.09923664 32.7348213,7.13403682 28.7887999,10.2196527 C24.7627142,13.374869 23.3673095,18.8616974 25.3689146,23.6177219 C28.1825995,30.2993564 36.8066579,32.8165694 42.3654011,27.4341416 C42.4454653,27.3645412 42.5026541,27.2369406 42.7314089,27.2833408 C42.7314089,28.0605448 42.7428467,28.872549 42.7199712,29.6613531 C42.7085334,30.032555 42.8343486,30.1717557 43.2117941,30.1717557 C44.1496891,30.1485556 45.0761463,30.1485556 46.0140413,30.1717557 C46.4143623,30.1833558 46.4829887,30.0093549 46.4829887,29.6613531 C46.4829887,26.158135 46.5401774,22.6549169 46.4601132,19.1632989 Z M38.3507532,25.8681335 C35.5942571,27.0629397 32.9521384,26.6685376 30.6874652,24.615327 C28.0453465,22.2141147 27.6907765,17.5624906 29.8410722,14.5812753 C31.899866,11.7276605 35.9259517,10.8692561 39.0141424,12.6904655 C41.4275062,14.1172729 42.4454653,16.3560844 42.5255295,19.2328993 C42.4111521,22.1793145 41.2216268,24.6269271 38.3507532,25.8681335 Z" id="Shape"></path>
                    </g>
                    <ellipse id="Oval" cx="103.483444" cy="19.4509804" rx="3.59602649" ry="3.64705882"></ellipse>
                </g>
            </g>
        </g>
    </g>
</svg>